<?xml version="1.0" encoding="UTF-8" standalone="no"?>
<svg
   xmlns:dc="http://purl.org/dc/elements/1.1/"
   xmlns:cc="http://creativecommons.org/ns#"
   xmlns:rdf="http://www.w3.org/1999/02/22-rdf-syntax-ns#"
   xmlns:svg="http://www.w3.org/2000/svg"
   xmlns="http://www.w3.org/2000/svg"
   xmlns:sodipodi="http://sodipodi.sourceforge.net/DTD/sodipodi-0.dtd"
   xmlns:inkscape="http://www.inkscape.org/namespaces/inkscape"
   viewBox="0 0 64 64"
   version="1.1"
   id="svg33"
   sodipodi:docname="logo.svg"
   inkscape:version="0.92.4 (5da689c313, 2019-01-14)">
  <metadata
     id="metadata39">
    <rdf:RDF>
      <cc:Work
         rdf:about="">
        <dc:format>image/svg+xml</dc:format>
        <dc:type
           rdf:resource="http://purl.org/dc/dcmitype/StillImage" />
        <dc:title>Wind Turbin Energy</dc:title>
      </cc:Work>
    </rdf:RDF>
  </metadata>
  <defs
     id="defs37" />
  <sodipodi:namedview
     pagecolor="#ffffff"
     bordercolor="#666666"
     borderopacity="1"
     objecttolerance="10"
     gridtolerance="10"
     guidetolerance="10"
     inkscape:pageopacity="0"
     inkscape:pageshadow="2"
     inkscape:window-width="1920"
     inkscape:window-height="1046"
     id="namedview35"
     showgrid="false"
     inkscape:zoom="7.375"
     inkscape:cx="9.3574383"
     inkscape:cy="38.924861"
     inkscape:window-x="-11"
     inkscape:window-y="-11"
     inkscape:window-maximized="1"
     inkscape:current-layer="Wind_Turbin_Energy" />
  <title
     id="title2">Wind Turbin Energy</title>
  <g
     id="Wind_Turbin_Energy"
     data-name="Wind Turbin Energy">
    <path
       d="M17.61,18.61a5,5,0,0,1,3.39-.5v-16a1.15,1.15,0,0,0-2.25-.34C14.84,14.52,15,13.79,15,14.53,15,16.34,16.14,17.14,17.61,18.61Z"
       id="path4"
       style="fill:#b0f784;fill-opacity:1" />
    <path
       d="M39,32.51c-9-9.71-8.48-9.23-9.14-9.61-1.57-.9-2.87-.3-4.84.23a4.82,4.82,0,0,1-1.26,3.18l13.83,8A1.15,1.15,0,0,0,39,32.51Z"
       id="path6"
       style="fill:#b0f784;fill-opacity:1" />
    <path
       d="M2,34.71c.19,0-.56.16,12.17-2.76,2.49-.59,2.71-2.83,3.2-4.68a5,5,0,0,1-2.13-2.68l-13.82,8A1.16,1.16,0,0,0,2,34.71Z"
       id="path8"
       style="fill:#b0f784;fill-opacity:1" />
    <path
       d="M20,20a3,3,0,1,0,1.94,5.28A3,3,0,0,0,20,20Z"
       id="path10"
       style="fill:#b0f784;fill-opacity:1" />
    <path
       d="M18.29,27.7C16.67,39.41,17,33.2,17,56h6c0-22.81.33-16.59-1.29-28.3A5,5,0,0,1,18.29,27.7Z"
       id="path12"
       style="fill:#b0f784;fill-opacity:1" />
    <path
       d="M62,61H26a3,3,0,0,0-3-3H17a3,3,0,0,0-3,3H2a1,1,0,0,0,0,2H62A1,1,0,0,0,62,61Z"
       id="path14"
       style="fill:#b0f784;fill-opacity:1" />
    <path
       d="M37,13H54a1,1,0,0,0,0-2H37a4,4,0,0,1-2.84-6.83A4.67,4.67,0,0,1,38,3a1,1,0,0,0,0-2c-1.8,0-3.49,0-5.25,1.76A6,6,0,0,0,37,13Z"
       id="path16"
       style="fill:#b0f784;fill-opacity:1" />
    <path
       d="M58,13h4a1,1,0,0,0,0-2H58A1,1,0,0,0,58,13Z"
       id="path18"
       style="fill:#b0f784;fill-opacity:1" />
    <path
       d="M38,17a1,1,0,0,0,0,2h1a1,1,0,0,0,0-2Z"
       id="path20"
       style="fill:#b0f784;fill-opacity:1" />
    <path
       d="M52,17H43a1,1,0,0,0,0,2h9A1,1,0,0,0,52,17Z"
       id="path22"
       style="fill:#b0f784;fill-opacity:1" />
    <path
       d="M30,19h4a1,1,0,0,0,0-2H30A1,1,0,0,0,30,19Z"
       id="path24"
       style="fill:#b0f784;fill-opacity:1" />
    <path
       d="M52,25h7a1,1,0,0,0,0-2H52A1,1,0,0,0,52,25Z"
       id="path26"
       style="fill:#b0f784;fill-opacity:1" />
    <path
       d="M46,25h2a1,1,0,0,0,0-2H46a5,5,0,0,0,0,10,1,1,0,0,0,0-2,3,3,0,0,1,0-6Z"
       id="path28"
       style="fill:#b0f784;fill-opacity:1" />
    <path
       d="M43,7H59a1,1,0,0,0,0-2H43A1,1,0,0,0,43,7Z"
       id="path30"
       style="fill:#b0f784;fill-opacity:1" />
  </g>
</svg>
